<svg xmlns="http://www.w3.org/2000/svg" width="24" height="24" style=""><rect id="backgroundrect" width="100%" height="100%" x="0" y="0" fill="none" stroke="none" class="" style=""/><title>Group</title><g class="currentLayer" style=""><title>Layer 1</title><g class="" id="svg_8"><path d="M55.085105895996094,13.361701965332031 c6.627,0 12,-5.373 12,-12 S61.71210589599609,-10.638298034667969 55.085105895996094,-10.638298034667969 S43.085105895996094,-5.265298034667968 43.085105895996094,1.3617019653320312 s5.373,12 12,12 z" fill="#535C6B" id="svg_9"/><path d="M60.88510589599609,8.121701965332033 c0,-0.8180000000000002 -0.8850000000000002,-4.282 -0.8850000000000002,-4.282 c0,-0.506 -0.6360000000000002,-1.084 -1.8900000000000001,-1.42 a4.185,4.185 0 0 1 -1.197,-0.5670000000000002 c-0.08000000000000003,-0.047000000000000014 -0.07,-0.4900000000000001 -0.07,-0.4900000000000001 l-0.402,-0.06300000000000003 c0,-0.03600000000000001 -0.035,-0.5660000000000002 -0.035,-0.5660000000000002 c0.4840000000000001,-0.16800000000000007 0.4340000000000001,-1.1640000000000001 0.4340000000000001,-1.1640000000000001 c0.3070000000000001,0.17700000000000005 0.507,-0.6100000000000002 0.507,-0.6100000000000002 c0.3640000000000001,-1.095 -0.18000000000000005,-1.03 -0.18000000000000005,-1.03 a7.154,7.154 0 0 0 0,-2.015 c-0.24000000000000005,-2.215 -3.88,-1.613 -3.45,-0.8900000000000002 c-1.063,-0.203 -0.8200000000000002,2.3120000000000003 -0.8200000000000002,2.3120000000000003 l0.23,0.6520000000000002 c-0.452,0.3050000000000001 -0.137,0.6750000000000004 -0.12200000000000003,1.1 c0.023000000000000013,0.6270000000000002 0.3920000000000001,0.4970000000000001 0.3920000000000001,0.4970000000000001 c0.023000000000000013,1.037 0.514,1.172 0.514,1.172 c0.09300000000000005,0.6500000000000002 0.035,0.54 0.035,0.54 l-0.4380000000000001,0.055000000000000014 c0.006000000000000004,0.14800000000000005 -0.006000000000000004,0.2960000000000001 -0.035,0.4400000000000001 c-0.514,0.24000000000000005 -0.6250000000000002,0.3800000000000001 -1.1360000000000001,0.6120000000000002 c-0.986,0.45 -2.06,1.034 -2.25,1.82 c-0.19000000000000006,0.79 -0.7580000000000002,3.9 -0.7580000000000002,3.9 H60.88510589599609 z" fill="#FFF" id="svg_10"/></g><g id="svg_4" class=""><path d="M12 24c6.627 0 12-5.373 12-12S18.627 0 12 0 0 5.373 0 12s5.373 12 12 12z" fill="#535C6B" id="svg_5"/><path d="M17.8 18.76c0-.818-.885-4.282-.885-4.282 0-.506-.636-1.084-1.89-1.42a4.185 4.185 0 0 1-1.197-.567c-.08-.047-.07-.49-.07-.49l-.402-.063c0-.036-.035-.566-.035-.566.484-.168.434-1.164.434-1.164.307.177.507-.61.507-.61.364-1.095-.18-1.03-.18-1.03a7.154 7.154 0 0 0 0-2.015c-.24-2.215-3.88-1.613-3.45-.89-1.063-.203-.82 2.312-.82 2.312l.23.652c-.452.305-.137.675-.122 1.1.023.627.392.497.392.497.023 1.037.514 1.172.514 1.172.093.65.035.54.035.54l-.438.055c.006.148-.006.296-.035.44-.514.24-.625.38-1.136.612-.986.45-2.06 1.034-2.25 1.82-.19.79-.758 3.9-.758 3.9H17.8z" fill="#FFF" id="svg_6"/></g></g></svg>