<svg width="15" height="15" viewBox="0 0 15 15" fill="none" xmlns="http://www.w3.org/2000/svg">
<path d="M13.125 7.5C13.125 4.39453 10.6055 1.875 7.5 1.875C4.39453 1.875 1.875 4.39453 1.875 7.5C1.875 10.6055 4.39453 13.125 7.5 13.125C10.6055 13.125 13.125 10.6055 13.125 7.5Z" stroke="#FF0000" stroke-miterlimit="10"/>
<path d="M7.33172 4.86475L7.49988 8.43751L7.66775 4.86475C7.66879 4.84191 7.66516 4.8191 7.65708 4.79771C7.649 4.77632 7.63665 4.75681 7.62077 4.74036C7.60489 4.7239 7.58583 4.71086 7.56474 4.70203C7.54365 4.69319 7.52098 4.68875 7.49812 4.68897C7.47553 4.68919 7.45321 4.69395 7.4325 4.70298C7.4118 4.712 7.39312 4.72511 7.37759 4.74152C7.36205 4.75793 7.34999 4.7773 7.34211 4.79847C7.33423 4.81964 7.33069 4.84219 7.33172 4.86475Z" stroke="#FF0000" stroke-linecap="round" stroke-linejoin="round"/>
<path d="M7.5 10.7788C7.38411 10.7788 7.27083 10.7444 7.17447 10.6801C7.07811 10.6157 7.00301 10.5242 6.95866 10.4171C6.91432 10.31 6.90271 10.1922 6.92532 10.0786C6.94793 9.9649 7.00374 9.8605 7.08568 9.77855C7.16762 9.69661 7.27203 9.6408 7.38569 9.61819C7.49935 9.59558 7.61716 9.60719 7.72423 9.65154C7.83129 9.69588 7.92281 9.77098 7.98719 9.86734C8.05157 9.9637 8.08594 10.077 8.08594 10.1929C8.08594 10.3483 8.02421 10.4973 7.91432 10.6072C7.80444 10.7171 7.6554 10.7788 7.5 10.7788Z" fill="#FF0000"/>
</svg>
